<?xml version="1.0" encoding="UTF-8" standalone="no" ?>
<!DOCTYPE svg PUBLIC "-//W3C//DTD SVG 1.1//EN" "http://www.w3.org/Graphics/SVG/1.1/DTD/svg11.dtd">
<svg xmlns="http://www.w3.org/2000/svg" xmlns:xlink="http://www.w3.org/1999/xlink" version="1.1" width="469.9736718749999" height="137.99" xml:space="preserve">
<desc>Created with Fabric.js 1.6.0-rc.1</desc>
<defs></defs>
<g style="stroke: none; stroke-width: 1; stroke-dasharray: none; stroke-linecap: butt; stroke-linejoin: miter; stroke-miterlimit: 10; fill: none; fill-rule: nonzero; opacity: 1;" transform="translate(10 10) scale(0.23 0.23)" >
  <path d="M 256.001 512 C 397 512 512 397 512 255.999 C 512 115 396.998 0 256.001 0 C 115 0 0 115 0 255.999 C 0 397 115 512 256.001 512 z" style="stroke: none; stroke-width: 1; stroke-dasharray: none; stroke-linecap: butt; stroke-linejoin: miter; stroke-miterlimit: 10; fill: #2b6771; fill-rule: nonzero; opacity: 1;" transform=" matrix(1 0 0 1 0 0) " stroke-linecap="round" />
  <path d="M 175.061 242.873 c 11.646 -19.575 29.999 -42.301 11.36 -76.846 C 158.985 46.065 285.429 21.737 304.548 71.251 c 31.109 11.73 30.282 76.308 14.282 110.1 c -0.711 13.904 -15.174 26.033 10.956 61.908 l 1.881 -0.409 l 0 0 c -33.894 9.82 -120.773 5.298 -156.603 0.024 H 175.061 z" style="stroke: none; stroke-width: 1; stroke-dasharray: none; stroke-linecap: butt; stroke-linejoin: miter; stroke-miterlimit: 10; fill: #141314; fill-rule: nonzero; opacity: 1;" transform=" matrix(1 0 0 1 0 0) " stroke-linecap="round" />
  <path d="M 208.284 180.737 c 9.535 20.029 13.06 27.848 24.9 36.85 c -2.765 51.007 -41.934 26.634 -70.577 72.882 c -2.471 3.992 -10.214 23.945 -17.039 43.35 c 31.736 20.782 69.669 32.877 110.436 32.877 c 40.764 0 78.7 -12.095 110.433 -32.877 c -6.825 -19.405 -14.568 -39.358 -17.039 -43.35 c -28.643 -46.249 -67.812 -21.878 -70.579 -72.882 c 11.843 -9.002 15.368 -16.821 24.9 -36.85 c 2.337 1.222 4.779 2.877 6.678 0.745 c 1.896 -2.135 10.927 -29.842 9.304 -33.582 s -3.208 -1.359 -5.632 0.338 c 0.126 -0.805 -1.91 10.012 -1.883 8.367 c 0.231 -13.081 -9.146 -24.606 -12.079 -59.214 c -27.193 50.291 -105.512 29.606 -102.171 50.847 c -15.253 -10.681 3.284 32.806 3.672 33.241 c 1.899 2.132 4.341 0.477 6.678 -0.745 L 208.284 180.737 z" style="stroke: none; stroke-width: 1; stroke-dasharray: none; stroke-linecap: butt; stroke-linejoin: miter; stroke-miterlimit: 10; fill: #FED198; fill-rule: nonzero; opacity: 1;" transform=" matrix(1 0 0 1 0 0) " stroke-linecap="round" />
  <path d="M 233.184 217.588 c -0.685 12.669 -3.617 20.682 -8.079 26.29 l 31.825 17.453 l 31.035 -16.181 c -5.062 -5.65 -8.412 -13.902 -9.154 -27.56 c 0 0 -13.11 9.7 -23.216 9.794 c -10.104 0.094 -22.413 -9.794 -22.413 -9.794 L 233.184 217.588 z" style="stroke: none; stroke-width: 1; stroke-dasharray: none; stroke-linecap: butt; stroke-linejoin: miter; stroke-miterlimit: 10; fill: #F0B97D; fill-rule: nonzero; opacity: 1;" transform=" matrix(1 0 0 1 0 0) " stroke-linecap="round" />
  <path d="M 228.872 237.724 c -7.145 15.415 -21.978 17.154 -37.907 25.703 l 64.376 103.265 l 0.661 0.005 c 4.299 0 8.564 -0.136 12.792 -0.401 l 52.358 -102.806 c -16.606 -8.947 -32.037 -10.447 -38.836 -27.68 l -26.358 17.32 l -27.085 -15.407 V 237.724 z" style="stroke: none; stroke-width: 1; stroke-dasharray: none; stroke-linecap: butt; stroke-linejoin: miter; stroke-miterlimit: 10; fill: #F1F1F1; fill-rule: nonzero; opacity: 1;" transform=" matrix(1 0 0 1 0 0) " stroke-linecap="round" />
  <path d="M 229.997 231.581 l -6.586 13.731 l 19.581 32.903 l 12.805 -25.086 L 229.997 231.581 z M 282.003 231.581 L 282.003 231.581 l 6.704 13.417 l -19.699 33.218 l -12.805 -25.086 L 282.003 231.581 z" style="stroke: none; stroke-width: 1; stroke-dasharray: none; stroke-linecap: butt; stroke-linejoin: miter; stroke-miterlimit: 10; fill: #FFFFFF; fill-rule: nonzero; opacity: 1;" transform=" matrix(1 0 0 1 0 0) " stroke-linecap="round" />
  <path d="M 213.231 252.822 c -16.415 7.759 -44.037 10.88 -62.776 37.65 c -1.831 2.615 -6.224 12.105 -11.213 23.801 c -23.13 27.224 -53.538 64.017 -53.981 69.798 c -0.719 9.34 -2.153 16.163 -1.437 17.957 c 0.719 1.794 16.446 63.859 16.446 63.859 l 56.992 1.146 l -17.766 -72.19 l 30.293 -26.699 v 120.275 h 86.207 h 86.207 V 368.145 l 30.293 26.699 l -17.768 72.19 l 56.995 -1.146 c 0 0 15.73 -62.063 16.446 -63.859 c 0.719 -1.794 -0.721 -8.619 -1.435 -17.957 c -0.443 -5.781 -30.852 -42.576 -53.981 -69.803 c -4.989 -11.693 -9.382 -21.178 -11.213 -23.796 c -18.786 -26.838 -46.479 -29.897 -62.91 -37.705 l -33.094 64.056 l -9.54 13.941 l -9.104 -14.057 l -33.658 -63.878 l -0.005 -0.01 L 213.231 252.822 z" style="stroke: none; stroke-width: 1; stroke-dasharray: none; stroke-linecap: butt; stroke-linejoin: miter; stroke-miterlimit: 10; fill: #52ab90; fill-rule: nonzero; opacity: 1;" transform=" matrix(1 0 0 1 0 0) " stroke-linecap="round" />
  <path d="M 131.199 445.232 c 16.244 0 29.409 8.173 29.409 18.256 c 0 10.083 -13.167 18.256 -29.409 18.256 c -16.244 0 -29.412 -8.176 -29.412 -18.256 C 101.788 453.405 114.955 445.232 131.199 445.232 z M 131.199 450.053 L 131.199 450.053 c -12.643 0 -22.888 6.02 -22.888 13.435 c 0 7.418 10.245 13.438 22.888 13.438 c 12.64 0 22.886 -6.02 22.886 -13.438 C 154.085 456.073 143.84 450.053 131.199 450.053 z" style="stroke: none; stroke-width: 1; stroke-dasharray: none; stroke-linecap: butt; stroke-linejoin: miter; stroke-miterlimit: 10; fill: #c8d8e9; fill-rule: nonzero; opacity: 1;" transform=" matrix(1 0 0 1 0 0) " stroke-linecap="round" />
  <path d="M 131.199 476.923 c 12.603 0 22.886 -6.033 22.886 -13.432 c 0 -7.399 -10.282 -13.438 -22.886 -13.438 c -12.606 0 -22.888 6.035 -22.888 13.438 C 108.311 470.89 118.593 476.923 131.199 476.923 z" style="stroke: none; stroke-width: 1; stroke-dasharray: none; stroke-linecap: butt; stroke-linejoin: miter; stroke-miterlimit: 10; fill: #377BB9; fill-rule: nonzero; opacity: 1;" transform=" matrix(1 0 0 1 0 0) " stroke-linecap="round" />
  <path d="M 121.885 471.163 v 14.71 c 0 1.826 -1.49 3.318 -3.315 3.318 h -5.852 c -1.826 0 -3.315 -1.49 -3.315 -3.318 v -22.765 c 0 -0.349 0.055 -0.685 0.155 -1.002 v -5.013 c 0 -4.262 3.483 -7.743 7.746 -7.743 h 47.891 c 4.262 0 7.746 3.483 7.746 7.743 v 5.005 c 0.102 0.32 0.157 0.656 0.157 1.01 v 22.765 c 0 1.826 -1.49 3.318 -3.318 3.318 h -5.847 c -1.828 0 -3.318 -1.49 -3.318 -3.318 v -14.71 h -4.585 v 14.71 c 0 1.826 -1.49 3.318 -3.315 3.318 h -5.849 c -1.828 0 -3.318 -1.49 -3.318 -3.318 v -14.71 h -4.585 v 14.71 c 0 1.826 -1.49 3.318 -3.318 3.318 h -5.849 c -1.826 0 -3.318 -1.49 -3.318 -3.318 v -14.71 h -4.585 H 121.885 z" style="stroke: none; stroke-width: 1; stroke-dasharray: none; stroke-linecap: butt; stroke-linejoin: miter; stroke-miterlimit: 10; fill: #FBB429; fill-rule: nonzero; opacity: 1;" transform=" matrix(1 0 0 1 0 0) " stroke-linecap="round" />
  <path d="M 380.803 445.232 c -16.244 0 -29.412 8.173 -29.412 18.256 c 0 10.083 13.167 18.256 29.412 18.256 c 16.244 0 29.412 -8.176 29.412 -18.256 C 410.215 453.405 397.047 445.232 380.803 445.232 z M 380.803 450.053 L 380.803 450.053 c 12.64 0 22.888 6.02 22.888 13.435 c 0 7.418 -10.248 13.438 -22.888 13.438 c -12.643 0 -22.888 -6.02 -22.888 -13.438 C 357.915 456.073 368.16 450.053 380.803 450.053 z" style="stroke: none; stroke-width: 1; stroke-dasharray: none; stroke-linecap: butt; stroke-linejoin: miter; stroke-miterlimit: 10; fill: #c8d8e9; fill-rule: nonzero; opacity: 1;" transform=" matrix(1 0 0 1 0 0) " stroke-linecap="round" />
  <path d="M 380.803 476.923 c 12.606 0 22.888 -6.033 22.888 -13.432 c 0 -7.399 -10.282 -13.438 -22.888 -13.438 c -12.609 0 -22.888 6.035 -22.888 13.438 C 357.915 470.89 368.197 476.923 380.803 476.923 z" style="stroke: none; stroke-width: 1; stroke-dasharray: none; stroke-linecap: butt; stroke-linejoin: miter; stroke-miterlimit: 10; fill: #377BB9; fill-rule: nonzero; opacity: 1;" transform=" matrix(1 0 0 1 0 0) " stroke-linecap="round" />
  <path d="M 390.115 471.163 v 14.71 c 0 1.826 1.49 3.318 3.318 3.318 h 5.847 c 1.828 0 3.318 -1.49 3.318 -3.318 v -22.765 c 0 -0.349 -0.055 -0.685 -0.155 -1.002 v -5.013 c 0 -4.262 -3.483 -7.743 -7.746 -7.743 h -47.893 c -4.26 0 -7.743 3.483 -7.743 7.743 v 5.005 c -0.105 0.32 -0.157 0.656 -0.157 1.01 v 22.765 c 0 1.826 1.49 3.318 3.318 3.318 h 5.849 c 1.826 0 3.315 -1.49 3.315 -3.318 v -14.71 h 4.585 v 14.71 c 0 1.826 1.49 3.318 3.318 3.318 h 5.847 c 1.828 0 3.318 -1.49 3.318 -3.318 v -14.71 h 4.585 v 14.71 c 0 1.826 1.49 3.318 3.318 3.318 h 5.849 c 1.826 0 3.315 -1.49 3.315 -3.318 v -14.71 h 4.585 H 390.115 z" style="stroke: none; stroke-width: 1; stroke-dasharray: none; stroke-linecap: butt; stroke-linejoin: miter; stroke-miterlimit: 10; fill: #FBB429; fill-rule: nonzero; opacity: 1;" transform=" matrix(1 0 0 1 0 0) " stroke-linecap="round" />
  <path d="M 217.147 250.884 l 39.167 76.279 l 38.574 -76.248 c 1.941 1.233 4.008 2.329 6.175 3.365 l -44.748 87.448 l -45.147 -87.98 c 2.109 -1.018 4.087 -1.66 5.978 -2.867 L 217.147 250.884 z" style="stroke: none; stroke-width: 1; stroke-dasharray: none; stroke-linecap: butt; stroke-linejoin: miter; stroke-miterlimit: 10; fill: #20D0C2; fill-rule: nonzero; opacity: 1;" transform=" matrix(1 0 0 1 0 0) " stroke-linecap="round" />
  <path d="M 124.096 296.993 h 263.807 c 8.422 0 15.313 6.893 15.313 15.313 v 145.804 c 0 8.422 -6.893 15.316 -15.313 15.316 H 124.096 c -8.422 0 -15.313 -6.893 -15.313 -15.316 V 312.306 C 108.783 303.884 115.677 296.993 124.096 296.993 z" style="stroke: none; stroke-width: 1; stroke-dasharray: none; stroke-linecap: butt; stroke-linejoin: miter; stroke-miterlimit: 10; fill: #FFFFFF; fill-rule: nonzero; opacity: 1;" transform=" matrix(1 0 0 1 0 0) " stroke-linecap="round" />
  <path d="M 114.591 480.944 h 282.816 c 3.2 0 5.815 2.615 5.815 5.815 v 11.208 c 0 3.203 -2.615 5.815 -5.815 5.815 H 114.591 c -3.197 0 -5.813 -2.612 -5.813 -5.815 v -11.208 C 108.778 483.556 111.393 480.944 114.591 480.944 z" style="stroke: none; stroke-width: 1; stroke-dasharray: none; stroke-linecap: butt; stroke-linejoin: miter; stroke-miterlimit: 10; fill: #c8d8e3; fill-rule: nonzero; opacity: 1;" transform=" matrix(1 0 0 1 0 0) " stroke-linecap="round" />
  <path d="M 152.023 469.919 h 25 v 17.044 h -25 V 469.919 z M 334.977 469.919 L 334.977 469.919 h 24.997 v 17.044 h -24.997 V 469.919 z" style="stroke: none; stroke-width: 1; stroke-dasharray: none; stroke-linecap: butt; stroke-linejoin: miter; stroke-miterlimit: 10; fill: #c8d8e9; fill-rule: nonzero; opacity: 1;" transform=" matrix(1 0 0 1 0 0) " stroke-linecap="round" />
  <path d="M 228.266 363.137 h 55.466 c 0.742 0 1.348 0.606 1.348 1.351 v 12.556 c 0 0.745 -0.606 1.351 -1.348 1.351 h -55.466 c -0.742 0 -1.348 -0.606 -1.348 -1.351 v -12.556 C 226.918 363.743 227.523 363.137 228.266 363.137 z" style="stroke: none; stroke-width: 1; stroke-dasharray: none; stroke-linecap: butt; stroke-linejoin: miter; stroke-miterlimit: 10; fill: #c8d8e9; fill-rule: nonzero; opacity: 1;" transform=" matrix(1 0 0 1 0 0) " stroke-linecap="round" />
</g>
  <g transform="translate(292.25 96.42) scale(0.39 0.39)">
   <text font-family="ADAMCG PRO" font-size="40" font-weight="normal" style="stroke: none; stroke-width: 1; stroke-dasharray: none; stroke-linecap: butt; stroke-linejoin: miter; stroke-miterlimit: 10; fill: #000000; fill-rule: nonzero; opacity: 1;" ><tspan x="-323.87" y="8.98" style="stroke: none; stroke-width: 0; stroke-dasharray: none; stroke-linecap: butt; stroke-linejoin: miter; stroke-miterlimit: 4; fill: #000000; fill-rule: ; opacity: 1;">E</tspan><tspan x="-300.61" y="8.98" style="stroke: none; stroke-width: 0; stroke-dasharray: none; stroke-linecap: butt; stroke-linejoin: miter; stroke-miterlimit: 4; fill: #000000; fill-rule: ; opacity: 1;">d</tspan><tspan x="-273.61" y="8.98" style="stroke: none; stroke-width: 0; stroke-dasharray: none; stroke-linecap: butt; stroke-linejoin: miter; stroke-miterlimit: 4; fill: #000000; fill-rule: ; opacity: 1;">u</tspan><tspan x="-245.98" y="8.98" style="stroke: none; stroke-width: 0; stroke-dasharray: none; stroke-linecap: butt; stroke-linejoin: miter; stroke-miterlimit: 4; fill: #000000; fill-rule: ; opacity: 1;">c</tspan><tspan x="-218.91" y="8.98" style="stroke: none; stroke-width: 0; stroke-dasharray: none; stroke-linecap: butt; stroke-linejoin: miter; stroke-miterlimit: 4; fill: #000000; fill-rule: ; opacity: 1;">a</tspan><tspan x="-191.11" y="8.98" style="stroke: none; stroke-width: 0; stroke-dasharray: none; stroke-linecap: butt; stroke-linejoin: miter; stroke-miterlimit: 4; fill: #000000; fill-rule: ; opacity: 1;">t</tspan><tspan x="-167.75" y="8.98" style="stroke: none; stroke-width: 0; stroke-dasharray: none; stroke-linecap: butt; stroke-linejoin: miter; stroke-miterlimit: 4; fill: #000000; fill-rule: ; opacity: 1;">i</tspan><tspan x="-156.97" y="8.98" style="stroke: none; stroke-width: 0; stroke-dasharray: none; stroke-linecap: butt; stroke-linejoin: miter; stroke-miterlimit: 4; fill: #000000; fill-rule: ; opacity: 1;">o</tspan><tspan x="-123.03" y="8.98" style="stroke: none; stroke-width: 0; stroke-dasharray: none; stroke-linecap: butt; stroke-linejoin: miter; stroke-miterlimit: 4; fill: #000000; fill-rule: ; opacity: 1;">n</tspan><tspan x="-93.52" y="8.98" style="stroke: none; stroke-width: 0; stroke-dasharray: none; stroke-linecap: butt; stroke-linejoin: miter; stroke-miterlimit: 4; fill: #000000; fill-rule: ; opacity: 1;"> </tspan><tspan x="-81.52" y="8.98" style="stroke: none; stroke-width: 0; stroke-dasharray: none; stroke-linecap: butt; stroke-linejoin: miter; stroke-miterlimit: 4; fill: #000000; fill-rule: ; opacity: 1;">&amp;</tspan><tspan x="-57.89" y="8.98" style="stroke: none; stroke-width: 0; stroke-dasharray: none; stroke-linecap: butt; stroke-linejoin: miter; stroke-miterlimit: 4; fill: #000000; fill-rule: ; opacity: 1;"> </tspan><tspan x="-45.9" y="8.98" style="stroke: none; stroke-width: 0; stroke-dasharray: none; stroke-linecap: butt; stroke-linejoin: miter; stroke-miterlimit: 4; fill: #000000; fill-rule: ; opacity: 1;">l</tspan><tspan x="-25.47" y="8.98" style="stroke: none; stroke-width: 0; stroke-dasharray: none; stroke-linecap: butt; stroke-linejoin: miter; stroke-miterlimit: 4; fill: #000000; fill-rule: ; opacity: 1;">e</tspan><tspan x="-2.21" y="8.98" style="stroke: none; stroke-width: 0; stroke-dasharray: none; stroke-linecap: butt; stroke-linejoin: miter; stroke-miterlimit: 4; fill: #000000; fill-rule: ; opacity: 1;">a</tspan><tspan x="25.59" y="8.98" style="stroke: none; stroke-width: 0; stroke-dasharray: none; stroke-linecap: butt; stroke-linejoin: miter; stroke-miterlimit: 4; fill: #000000; fill-rule: ; opacity: 1;">r</tspan><tspan x="51.21" y="8.98" style="stroke: none; stroke-width: 0; stroke-dasharray: none; stroke-linecap: butt; stroke-linejoin: miter; stroke-miterlimit: 4; fill: #000000; fill-rule: ; opacity: 1;">n</tspan><tspan x="80.72" y="8.98" style="stroke: none; stroke-width: 0; stroke-dasharray: none; stroke-linecap: butt; stroke-linejoin: miter; stroke-miterlimit: 4; fill: #000000; fill-rule: ; opacity: 1;">i</tspan><tspan x="91.5" y="8.98" style="stroke: none; stroke-width: 0; stroke-dasharray: none; stroke-linecap: butt; stroke-linejoin: miter; stroke-miterlimit: 4; fill: #000000; fill-rule: ; opacity: 1;">n</tspan><tspan x="121.02" y="8.98" style="stroke: none; stroke-width: 0; stroke-dasharray: none; stroke-linecap: butt; stroke-linejoin: miter; stroke-miterlimit: 4; fill: #000000; fill-rule: ; opacity: 1;">g</tspan><tspan x="149.41" y="8.98" style="stroke: none; stroke-width: 0; stroke-dasharray: none; stroke-linecap: butt; stroke-linejoin: miter; stroke-miterlimit: 4; fill: #000000; fill-rule: ; opacity: 1;"> </tspan><tspan x="161.41" y="8.98" style="stroke: none; stroke-width: 0; stroke-dasharray: none; stroke-linecap: butt; stroke-linejoin: miter; stroke-miterlimit: 4; fill: #000000; fill-rule: ; opacity: 1;">s</tspan><tspan x="182.52" y="8.98" style="stroke: none; stroke-width: 0; stroke-dasharray: none; stroke-linecap: butt; stroke-linejoin: miter; stroke-miterlimit: 4; fill: #000000; fill-rule: ; opacity: 1;">y</tspan><tspan x="210.04" y="8.98" style="stroke: none; stroke-width: 0; stroke-dasharray: none; stroke-linecap: butt; stroke-linejoin: miter; stroke-miterlimit: 4; fill: #000000; fill-rule: ; opacity: 1;">s</tspan><tspan x="231.15" y="8.98" style="stroke: none; stroke-width: 0; stroke-dasharray: none; stroke-linecap: butt; stroke-linejoin: miter; stroke-miterlimit: 4; fill: #000000; fill-rule: ; opacity: 1;">t</tspan><tspan x="254.51" y="8.98" style="stroke: none; stroke-width: 0; stroke-dasharray: none; stroke-linecap: butt; stroke-linejoin: miter; stroke-miterlimit: 4; fill: #000000; fill-rule: ; opacity: 1;">e</tspan><tspan x="277.77" y="8.98" style="stroke: none; stroke-width: 0; stroke-dasharray: none; stroke-linecap: butt; stroke-linejoin: miter; stroke-miterlimit: 4; fill: #000000; fill-rule: ; opacity: 1;">m</tspan><tspan x="311.88" y="8.98" style="stroke: none; stroke-width: 0; stroke-dasharray: none; stroke-linecap: butt; stroke-linejoin: miter; stroke-miterlimit: 4; fill: #000000; fill-rule: ; opacity: 1;"> </tspan></text>
 </g>
  <g transform="translate(270.99 57.72)">
   <text font-family="Arial" font-size="40" font-weight="bold" style="stroke: none; stroke-width: 1; stroke-dasharray: none; stroke-linecap: butt; stroke-linejoin: miter; stroke-miterlimit: 10; fill: #000000; fill-rule: nonzero; opacity: 1;" ><tspan x="-134.49" y="8.98" style="stroke: none; stroke-width: 0; stroke-dasharray: none; stroke-linecap: butt; stroke-linejoin: miter; stroke-miterlimit: 4; fill: #000000; fill-rule: ; opacity: 1;">W</tspan><tspan x="-96.74" y="8.98" style="stroke: none; stroke-width: 0; stroke-dasharray: none; stroke-linecap: butt; stroke-linejoin: miter; stroke-miterlimit: 4; fill: #000000; fill-rule: ; opacity: 1;">i</tspan><tspan x="-87.85" y="8.98" style="stroke: none; stroke-width: 0; stroke-dasharray: none; stroke-linecap: butt; stroke-linejoin: miter; stroke-miterlimit: 4; fill: #000000; fill-rule: ; opacity: 1;">s</tspan><tspan x="-67.85" y="8.98" style="stroke: none; stroke-width: 0; stroke-dasharray: none; stroke-linecap: butt; stroke-linejoin: miter; stroke-miterlimit: 4; fill: #000000; fill-rule: ; opacity: 1;">d</tspan><tspan x="-45.61" y="8.98" style="stroke: none; stroke-width: 0; stroke-dasharray: none; stroke-linecap: butt; stroke-linejoin: miter; stroke-miterlimit: 4; fill: #000000; fill-rule: ; opacity: 1;">o</tspan><tspan x="-23.36" y="8.98" style="stroke: none; stroke-width: 0; stroke-dasharray: none; stroke-linecap: butt; stroke-linejoin: miter; stroke-miterlimit: 4; fill: #000000; fill-rule: ; opacity: 1;">m</tspan><tspan x="9.96" y="8.98" style="stroke: none; stroke-width: 0; stroke-dasharray: none; stroke-linecap: butt; stroke-linejoin: miter; stroke-miterlimit: 4; fill: #000000; fill-rule: ; opacity: 1;"> </tspan><tspan x="21.07" y="8.98" style="stroke: none; stroke-width: 0; stroke-dasharray: none; stroke-linecap: butt; stroke-linejoin: miter; stroke-miterlimit: 4; fill: #000000; fill-rule: ; opacity: 1;">A</tspan><tspan x="47.75" y="8.98" style="stroke: none; stroke-width: 0; stroke-dasharray: none; stroke-linecap: butt; stroke-linejoin: miter; stroke-miterlimit: 4; fill: #000000; fill-rule: ; opacity: 1;">c</tspan><tspan x="67.75" y="8.98" style="stroke: none; stroke-width: 0; stroke-dasharray: none; stroke-linecap: butt; stroke-linejoin: miter; stroke-miterlimit: 4; fill: #000000; fill-rule: ; opacity: 1;">a</tspan><tspan x="90" y="8.98" style="stroke: none; stroke-width: 0; stroke-dasharray: none; stroke-linecap: butt; stroke-linejoin: miter; stroke-miterlimit: 4; fill: #000000; fill-rule: ; opacity: 1;">d</tspan><tspan x="112.25" y="8.98" style="stroke: none; stroke-width: 0; stroke-dasharray: none; stroke-linecap: butt; stroke-linejoin: miter; stroke-miterlimit: 4; fill: #000000; fill-rule: ; opacity: 1;">e</tspan></text>
 </g>
  <g transform="translate(434.31 55.55) scale(1.09 1.09)">
   <text font-family="Gochi Hand" font-size="40" font-weight="bold" style="stroke: none; stroke-width: 1; stroke-dasharray: none; stroke-linecap: butt; stroke-linejoin: miter; stroke-miterlimit: 10; fill: #2b6777; fill-rule: nonzero; opacity: 1;" ><tspan x="-24.04" y="8.98" style="stroke: none; stroke-width: 0; stroke-dasharray: none; stroke-linecap: butt; stroke-linejoin: miter; stroke-miterlimit: 4; fill: #2b6777; fill-rule: ; opacity: 1;">m</tspan><tspan x="4.36" y="8.98" style="stroke: none; stroke-width: 0; stroke-dasharray: none; stroke-linecap: butt; stroke-linejoin: miter; stroke-miterlimit: 4; fill: #2b6777; fill-rule: ; opacity: 1;">y</tspan></text>
 </g>
</svg>